<svg width="20" height="20" viewBox="0 0 20 20" fill="none" xmlns="http://www.w3.org/2000/svg">
<path d="M13.037 2.66669C12.9937 2.88944 12.9721 3.11587 12.9725 3.34278C12.9725 5.37869 14.6254 7.02913 16.6643 7.02913C16.8888 7.02802 17.1127 7.00647 17.3333 6.96474V14.273C17.3333 17.3477 15.5197 19.1667 12.4405 19.1667H5.73414C2.64694 19.1667 0.833313 17.3477 0.833313 14.273V7.57644C0.833313 4.50181 2.64694 2.66669 5.73414 2.66669H13.037ZM13.0403 8.16814C12.861 8.19393 12.6999 8.29117 12.5937 8.43766L10.3851 11.2789L7.8702 9.29888C7.72661 9.18702 7.54396 9.13763 7.36347 9.16187C7.18298 9.1861 7.01988 9.28191 6.91099 9.42766L4.20263 12.9208C4.10744 13.0395 4.05618 13.1873 4.05754 13.3394L4.05992 13.4405C4.08618 13.7064 4.26851 13.9361 4.52966 14.0185C4.82345 14.1112 5.14291 13.9942 5.30693 13.7338L7.57196 10.804L10.0869 12.776C10.2299 12.8913 10.4138 12.9436 10.5962 12.9208C10.7786 12.898 10.9439 12.8022 11.0541 12.6552L13.6738 9.27474V9.25864C13.8981 8.95728 13.8409 8.53234 13.5448 8.30083C13.4016 8.19023 13.2195 8.14235 13.0403 8.16814Z" fill="#9896A3"/>
<path opacity="0.4" d="M16.875 5.41668C18.1406 5.41668 19.1666 4.39066 19.1666 3.12501C19.1666 1.85936 18.1406 0.833344 16.875 0.833344C15.6093 0.833344 14.5833 1.85936 14.5833 3.12501C14.5833 4.39066 15.6093 5.41668 16.875 5.41668Z" fill="#9896A3"/>
</svg>
