<svg width="18" height="20" viewBox="0 0 18 20" fill="none" xmlns="http://www.w3.org/2000/svg">
<path d="M12.713 15.5825C12.2964 15.5733 11.9613 15.225 11.9613 14.8033C11.9523 14.3817 12.2873 14.0343 12.7039 14.0251H12.713C13.1386 14.0251 13.4827 14.3734 13.4827 14.8033C13.4827 15.2342 13.1386 15.5825 12.713 15.5825ZM9.01811 12.2092C8.60154 12.2284 8.25741 11.8975 8.2393 11.4768C8.2393 11.0551 8.56531 10.7068 8.98189 10.6875C9.38941 10.6875 9.72448 11.0093 9.73353 11.4208C9.75165 11.8434 9.42563 12.1918 9.01811 12.2092ZM9.01811 15.5367C8.60154 15.5559 8.25741 15.225 8.2393 14.8033C8.2393 14.3817 8.56531 14.0343 8.98189 14.015C9.38941 14.015 9.72448 14.3368 9.73353 14.7493C9.75165 15.1709 9.42563 15.5193 9.01811 15.5367ZM5.2961 12.2092C4.87953 12.2284 4.5354 11.8975 4.51729 11.4768C4.51729 11.0551 4.8433 10.7068 5.25988 10.6875C5.6674 10.6875 6.00247 11.0093 6.01153 11.4208C6.02964 11.8434 5.70362 12.1918 5.2961 12.2092ZM5.28705 15.5367C4.87047 15.5559 4.52634 15.225 4.50823 14.8033C4.50823 14.3817 4.83425 14.0343 5.25082 14.015C5.65834 14.015 5.99341 14.3368 6.00247 14.7493C6.02058 15.1709 5.69457 15.5193 5.28705 15.5367ZM11.9704 11.4676C11.9704 11.0459 12.2964 10.7068 12.713 10.6976C13.1205 10.6976 13.4465 11.0267 13.4646 11.4309C13.4737 11.8526 13.1476 12.2009 12.7401 12.2092C12.3235 12.2183 11.9794 11.8975 11.9704 11.4768V11.4676ZM0.75 7.4856V14.4642C0.75 17.3608 2.57931 19.1667 5.45006 19.1667H12.5409C15.4388 19.1667 17.25 17.3975 17.25 14.5201V7.4856H0.75Z" fill="#9896A3"/>
<path opacity="0.4" d="M0.753052 7.48551C0.764825 6.94743 0.810104 5.87951 0.895231 5.53576C1.32992 3.60251 2.80604 2.37418 4.91609 2.1991H13.0846C15.1765 2.38335 16.6708 3.61993 17.1054 5.53576C17.1897 5.87035 17.2349 6.94651 17.2467 7.48551H0.753052Z" fill="#9896A3"/>
<path d="M5.61278 5.04084C6.01124 5.04084 6.31009 4.73926 6.31009 4.33501V1.54009C6.31009 1.13584 6.01124 0.833344 5.61278 0.833344C5.21431 0.833344 4.91547 1.13584 4.91547 1.54009V4.33501C4.91547 4.73926 5.21431 5.04084 5.61278 5.04084Z" fill="#9896A3"/>
<path d="M12.387 5.04084C12.7764 5.04084 13.0843 4.73926 13.0843 4.33501V1.54009C13.0843 1.13584 12.7764 0.833344 12.387 0.833344C11.9885 0.833344 11.6897 1.13584 11.6897 1.54009V4.33501C11.6897 4.73926 11.9885 5.04084 12.387 5.04084Z" fill="#9896A3"/>
</svg>
