<svg width="20" height="20" viewBox="0 0 20 20" fill="none" xmlns="http://www.w3.org/2000/svg">
<path opacity="0.4" d="M13.7359 0.833328H16.8397C18.1251 0.833328 19.1666 1.88369 19.1666 3.17996V6.30998C19.1666 7.60625 18.1251 8.65661 16.8397 8.65661H13.7359C12.4504 8.65661 11.4089 7.60625 11.4089 6.30998V3.17996C11.4089 1.88369 12.4504 0.833328 13.7359 0.833328Z" fill="#9896A3"/>
<path d="M6.2641 11.3434C7.54951 11.3434 8.59108 12.3937 8.59108 13.69V16.82C8.59108 18.1154 7.54951 19.1667 6.2641 19.1667H3.16029C1.87488 19.1667 0.833313 18.1154 0.833313 16.82V13.69C0.833313 12.3937 1.87488 11.3434 3.16029 11.3434H6.2641ZM16.8397 11.3434C18.1251 11.3434 19.1666 12.3937 19.1666 13.69V16.82C19.1666 18.1154 18.1251 19.1667 16.8397 19.1667H13.7359C12.4505 19.1667 11.4089 18.1154 11.4089 16.82V13.69C11.4089 12.3937 12.4505 11.3434 13.7359 11.3434H16.8397ZM6.2641 0.833328C7.54951 0.833328 8.59108 1.88369 8.59108 3.17996V6.30998C8.59108 7.60625 7.54951 8.65661 6.2641 8.65661H3.16029C1.87488 8.65661 0.833313 7.60625 0.833313 6.30998V3.17996C0.833313 1.88369 1.87488 0.833328 3.16029 0.833328H6.2641Z" fill="#9896A3"/>
</svg>
