<svg width="20" height="20" viewBox="0 0 20 20" fill="none" xmlns="http://www.w3.org/2000/svg">
<path opacity="0.4" d="M14.4773 3.68862H11.7795C11.1074 3.69306 10.4693 3.3941 10.0434 2.87522L9.155 1.647C8.73624 1.12357 8.09817 0.823209 7.42709 0.833605H5.51987C2.09665 0.833605 0.833314 2.84269 0.833314 6.25894V9.95175C0.829064 10.3579 19.1627 10.3573 19.1638 9.95175V8.87807C19.1801 5.46182 17.9494 3.68862 14.4773 3.68862Z" fill="#F5FFFC"/>
<path d="M14.4691 3.6886C15.6652 3.5961 16.8523 3.95617 17.7945 4.69721C17.903 4.78923 18.0039 4.88988 18.0961 4.99817C18.3894 5.34108 18.616 5.73553 18.7644 6.16132C19.0565 7.03645 19.1917 7.9561 19.1638 8.87806V13.6934C19.1626 14.0989 19.1327 14.5039 19.0742 14.9053C18.9627 15.6136 18.7135 16.2934 18.3406 16.9063C18.1692 17.2023 17.9611 17.4756 17.7212 17.7197C16.6351 18.7164 15.1929 19.2353 13.7193 19.1594H6.26971C4.79377 19.2347 3.34921 18.7161 2.25965 17.7197C2.0226 17.4751 1.81723 17.2018 1.64837 16.9063C1.27767 16.2938 1.03378 15.6134 0.93112 14.9053C0.865844 14.5046 0.833313 14.0993 0.833313 13.6934V8.87806C0.833313 8.4759 0.854921 8.07403 0.898518 7.67424C0.92297 7.48716 0.980023 7.30821 0.980023 7.12926C1.06276 6.6468 1.21369 6.17849 1.4283 5.73836C2.06404 4.37999 3.36812 3.6886 5.50356 3.6886H14.4691ZM14.6892 11.7331H5.38945C4.97082 11.7331 4.63145 12.0718 4.63145 12.4895C4.63145 12.9073 4.97082 13.246 5.38945 13.246H14.6321C14.8346 13.2548 15.0321 13.1823 15.1807 13.0448C15.3292 12.9072 15.4164 12.7161 15.4227 12.5139C15.4342 12.3363 15.3757 12.1612 15.2597 12.0259C15.1263 11.8441 14.9149 11.7356 14.6892 11.7331Z" fill="#F5FFFC"/>
</svg>
