<svg width="20" height="20" viewBox="0 0 20 20" fill="none" xmlns="http://www.w3.org/2000/svg">
<path d="M8.30667 4.09257C8.35336 4.1876 8.38419 4.28936 8.398 4.39398L8.65323 8.18891L8.77993 10.0963C8.78124 10.2925 8.81201 10.4874 8.87126 10.6747C9.02428 11.0382 9.39238 11.2692 9.79286 11.2531L15.8954 10.8539C16.1596 10.8496 16.4148 10.9484 16.6048 11.1287C16.7631 11.2789 16.8653 11.4754 16.8975 11.6868L16.9083 11.8152C16.6558 15.312 14.0875 18.2286 10.598 18.9815C7.1084 19.7344 3.53002 18.1439 1.80563 15.0737C1.3085 14.1817 0.997992 13.2012 0.89233 12.1899C0.848189 11.8905 0.828753 11.5881 0.834211 11.2857C0.828761 7.53668 3.49849 4.29555 7.23562 3.51419C7.6854 3.44416 8.12634 3.68227 8.30667 4.09257Z" fill="#9896A3"/>
<path opacity="0.4" d="M10.7975 0.834094C14.9774 0.940435 18.4904 3.94615 19.1666 7.99461L19.1602 8.02448L19.1417 8.06793L19.1443 8.18717C19.1347 8.34516 19.0737 8.49717 18.9686 8.61995C18.8591 8.74785 18.7095 8.83495 18.5448 8.86876L18.4443 8.88255L11.4036 9.33873C11.1694 9.36183 10.9362 9.28631 10.762 9.13097C10.6169 9.00151 10.5241 8.82676 10.4979 8.63846L10.0253 1.60798C10.0171 1.58421 10.0171 1.55844 10.0253 1.53467C10.0318 1.34088 10.1171 1.1577 10.2622 1.02605C10.4073 0.894412 10.6001 0.825277 10.7975 0.834094Z" fill="#9896A3"/>
</svg>
