<svg width="24" height="5" viewBox="0 0 24 5" fill="none" xmlns="http://www.w3.org/2000/svg">
<path d="M4.8 2.4C4.8 3.72548 3.72548 4.8 2.4 4.8C1.07452 4.8 0 3.72548 0 2.4C0 1.07452 1.07452 0 2.4 0C3.72548 0 4.8 1.07452 4.8 2.4Z" fill="#56555C"/>
<path d="M14.4 2.4C14.4 3.72548 13.3255 4.8 12 4.8C10.6745 4.8 9.6 3.72548 9.6 2.4C9.6 1.07452 10.6745 0 12 0C13.3255 0 14.4 1.07452 14.4 2.4Z" fill="#56555C"/>
<path d="M24 2.4C24 3.72548 22.9255 4.8 21.6 4.8C20.2745 4.8 19.2 3.72548 19.2 2.4C19.2 1.07452 20.2745 0 21.6 0C22.9255 0 24 1.07452 24 2.4Z" fill="#56555C"/>
</svg>
