<svg width="21" height="21" viewBox="0 0 21 21" fill="none" xmlns="http://www.w3.org/2000/svg">
<path opacity="0.4" d="M20.8567 10.8211C20.8567 16.3451 16.3797 20.8211 10.8567 20.8211C5.33369 20.8211 0.856689 16.3451 0.856689 10.8211C0.856689 5.29914 5.33369 0.821136 10.8567 0.821136C16.3797 0.821136 20.8567 5.29914 20.8567 10.8211Z" fill="#56555C"/>
<path d="M14.4304 14.6356C14.2994 14.6356 14.1674 14.6016 14.0464 14.5306L10.1204 12.1886C9.89437 12.0526 9.75537 11.8076 9.75537 11.5436V6.49664C9.75537 6.08264 10.0914 5.74664 10.5054 5.74664C10.9194 5.74664 11.2554 6.08264 11.2554 6.49664V11.1176L14.8154 13.2406C15.1704 13.4536 15.2874 13.9136 15.0754 14.2696C14.9344 14.5046 14.6854 14.6356 14.4304 14.6356Z" fill="#56555C"/>
</svg>
